<svg xmlns="http://www.w3.org/2000/svg" viewBox="0 0 511.969 511.969"><path d="M383.93 95.106c-.016-.086-.016-.18-.016-.266-.031-.312-.094-.625-.141-.93-.016-.008-.016-.023-.016-.023a8.514 8.514 0 0 0-.219-.891c-.031-.086-.062-.172-.078-.258-.078-.227-.156-.445-.234-.664a5.866 5.866 0 0 0-.094-.242 14.854 14.854 0 0 0-.406-.852c0-.016-.016-.023-.031-.039a6.523 6.523 0 0 0-.453-.773c-.047-.07-.109-.148-.156-.219-.141-.195-.266-.383-.422-.57-.062-.078-.109-.148-.172-.219a13.352 13.352 0 0 0-.641-.703l-85.338-85.33a10.36 10.36 0 0 0-.688-.641c-.078-.062-.156-.117-.219-.172a8.15 8.15 0 0 0-.578-.422c-.078-.055-.141-.102-.219-.156-.266-.164-.516-.32-.781-.469-.016 0-.016-.008-.016-.008a8.905 8.905 0 0 0-.875-.406c-.062-.031-.156-.062-.219-.094-.234-.086-.453-.172-.688-.242-.078-.023-.156-.055-.25-.078a14.928 14.928 0 0 0-.875-.227h-.031a10.064 10.064 0 0 0-.938-.141c-.094-.016-.188-.016-.266-.023a7.564 7.564 0 0 0-.734-.039c-.047 0-.094-.008-.156-.008H10.664C4.773 0 0 4.773 0 10.663v490.649c0 5.875 4.773 10.656 10.664 10.656h362.657c5.875 0 10.656-4.781 10.656-10.656V95.833l-.047-.727zm-85.291-58.685l48.918 48.911h-48.918V36.421zm63.996 454.207h-341.3V21.336h255.992v74.66c0 5.89 4.766 10.663 10.656 10.663h74.652v383.969zM511.969 117.33c0-23.568-19.093-42.669-42.654-42.669-23.576 0-42.684 19.101-42.684 42.669v287.99h13.248l-13.248 46.217 42.684 28.436 42.654-28.436-13.233-46.217h13.233V117.33zm-42.654 337.003l-17.873-11.92 10.624-37.092h14.483l10.625 37.092-17.859 11.92zm21.312-70.354h-42.654V117.33c0-11.765 9.562-21.334 21.342-21.334 11.75 0 21.312 9.569 21.312 21.334v266.649z"/><path d="M309.325 277.328H74.856c-5.891 0-10.671 4.766-10.671 10.656 0 5.889 4.781 10.654 10.671 10.654h234.469c5.875 0 10.656-4.766 10.656-10.654 0-5.89-4.781-10.656-10.656-10.656zm0 63.997H74.856c-5.891 0-10.671 4.766-10.671 10.656 0 5.889 4.781 10.654 10.671 10.654h234.469c5.875 0 10.656-4.766 10.656-10.654 0-5.89-4.781-10.656-10.656-10.656zM202.652 405.32H74.856c-5.891 0-10.671 4.766-10.671 10.656 0 5.889 4.781 10.654 10.671 10.654h127.797c5.89 0 10.671-4.766 10.671-10.654-.001-5.89-4.781-10.656-10.672-10.656zm.197-319.987h-53.427V73.997c0-5.891-4.773-10.663-10.663-10.663-5.898 0-10.671 4.772-10.671 10.663v11.335H74.856c-5.891 0-10.671 4.773-10.671 10.664-.001 5.889 4.78 10.663 10.671 10.663h53.231v85.331H96.089c-5.89 0-10.664 4.772-10.664 10.663s4.773 10.671 10.664 10.671h85.331c5.891 0 10.664-4.78 10.664-10.671s-4.773-10.663-10.664-10.663h-31.998v-85.331h53.427c5.89 0 10.663-4.773 10.663-10.663 0-5.89-4.773-10.663-10.663-10.663z"/><path d="M84.628 127.994H63.301c-5.89 0-10.671 4.772-10.671 10.663s4.781 10.671 10.671 10.671h21.327c5.891 0 10.671-4.78 10.671-10.671 0-5.891-4.781-10.663-10.671-10.663zm128.695 0h-21.334c-5.89 0-10.664 4.772-10.664 10.663s4.773 10.671 10.664 10.671h21.334c5.891 0 10.664-4.78 10.664-10.671 0-5.891-4.773-10.663-10.664-10.663z"/></svg>