<svg id="Capa_1" xmlns="http://www.w3.org/2000/svg" viewBox="0 0 512 512" width="69" height="69"><style>.st0{fill:#fff;fill-opacity:.1}</style><path class="st0" d="M477.7 133.8c-22.9-39.2-53.9-70.3-93.2-93.2C345.3 17.7 302.4 6.3 256 6.3c-46.4 0-89.3 11.4-128.5 34.3s-70.3 53.9-93.2 93.2C11.4 173 0 215.8 0 262.3 0 318 16.3 368.2 48.8 412.7c32.6 44.6 74.6 75.4 126.2 92.5 6 1.1 10.4.3 13.3-2.3 2.9-2.7 4.3-6 4.3-10 0-.7-.1-6.7-.2-18s-.2-21.2-.2-29.7l-7.7 1.3c-4.9.9-11.1 1.3-18.5 1.2-7.4-.1-15.2-.9-23.2-2.3s-15.4-4.8-22.3-10-11.8-12.1-14.7-20.5l-3.3-7.7c-2.2-5.1-5.7-10.8-10.5-17-4.8-6.2-9.6-10.4-14.5-12.7l-2.3-1.7c-1.6-1.1-3-2.4-4.3-4-1.3-1.6-2.3-3.1-3-4.7-.7-1.6-.1-2.8 1.7-3.8s5-1.5 9.7-1.5l6.7 1c4.4.9 9.9 3.6 16.5 8s11.9 10.2 16.2 17.3c5.1 9.1 11.3 16.1 18.5 20.8 7.2 4.8 14.5 7.2 21.8 7.2 7.3 0 13.7-.6 19-1.7 5.3-1.1 10.3-2.8 15-5 2-14.9 7.4-26.3 16.3-34.3-12.7-1.3-24.1-3.3-34.2-6-10.1-2.7-20.6-7-31.3-13-10.8-6-19.7-13.4-26.8-22.3-7.1-8.9-12.9-20.6-17.5-35-4.6-14.4-6.8-31.1-6.8-50 0-26.9 8.8-49.8 26.3-68.7-8.2-20.2-7.4-42.9 2.3-68 6.4-2 16-.5 28.7 4.5s21.9 9.3 27.8 12.8c5.9 3.6 10.6 6.6 14.2 9 20.7-5.8 42-8.7 64-8.7s43.3 2.9 64 8.7l12.7-8c8.7-5.3 18.9-10.2 30.7-14.7 11.8-4.4 20.8-5.7 27-3.7 10 25.1 10.9 47.8 2.7 68 17.6 18.9 26.3 41.8 26.3 68.7 0 18.9-2.3 35.6-6.8 50.2-4.6 14.6-10.4 26.2-17.7 35-7.2 8.8-16.2 16.2-27 22.2s-21.2 10.3-31.3 13c-10.1 2.7-21.5 4.7-34.2 6 11.6 10 17.3 25.8 17.3 47.3v70.3c0 4 1.4 7.3 4.2 10 2.8 2.7 7.2 3.4 13.2 2.3 51.6-17.1 93.6-47.9 126.2-92.5C495.7 368.2 512 318 512 262.2c0-46.4-11.5-89.2-34.3-128.4z"/></svg>