<svg id="Слой_2" data-name="Слой 2" xmlns="http://www.w3.org/2000/svg" viewBox="0 0 1200 324"><defs><style>.cls-1{fill:#1b2536;}</style></defs><title>Монтажная область 1</title><path class="cls-1" d="M180,57.35v57.41s2.77-.79,3.66-1.08,5.48-1.6,6.34-1.93a11.43,11.43,0,0,0,7.64-7.67s.68-1.79,3.68-2.29a11.36,11.36,0,0,1,4.33.37c2.58.67,2.88.84,4.69.78a6.2,6.2,0,0,0,1.62-.53c1-.45,3.95-1.75,5.9-2.37a77.36,77.36,0,0,1,10.81-2.65c4.16-.62,7.81-1.1,11.45-1.41s6.21-.36,8.37.26a13.89,13.89,0,0,1,5.18,2.71c1.39,1.15.88,1.21,2.36,2a10.7,10.7,0,0,0,5.34,1.17c1.89,0,3.88-.13,5.47-.26s7.1-.6,9.2-.59,4.36,0,5.57.59,1.29,3.28,1.29,3.28a25.18,25.18,0,0,1-.29,4.81,44.21,44.21,0,0,1-1.13,5.1c-.4,1.26-1.25,4.29-3.07,6.12s-95.82,94.36-95.82,94.36a9.47,9.47,0,0,0-1.86,2.84,9.68,9.68,0,0,0-.66,3.68c0,1.34-.09,47.55-.09,47.55h166.7V223.24s-3.64.37-6,.76-11.5,2.27-12.48,2.47-5.78,1.15-8.2,1.38c-6,.56-6.75-1.55-8.25-3.73,0,0-2.26-3.27-4-5.4s-5-5.88-5.3-6.28-3.06-3.48-4.89-5.44a96.23,96.23,0,0,1-6.47-7.41c-1.55-2.14-2.86-4.16-4.36-5.11s-3.2-1.47-6.89-.11-11.37,4.54-18.49,7.75c0,0-4.54,2.15-8.44.67,0,0,8.32-5.85,9.71-7s8-7.21,10-8.64,6.64-4.8,11.53-5.34a19.24,19.24,0,0,1,3.68-.18s1.22-2,2.26-4a16,16,0,0,1,3.48-3.76l7.34-6.94,8.48-8.37,9.93-10s14.92-14.75,16.76-16.47,6.22-5.57,7.6-6.95c2.35-2.35,3-3.4,3-7.85V57.35Z"/><path class="cls-1" d="M375.26,269.65V57.35h40.82s4.17.65,7.82,5.64l80,101.41V57.35h58v212.3l-39.62,0a12.54,12.54,0,0,1-6.68-1.83,8.52,8.52,0,0,1-2.45-2.21L432.89,166V269.65Z"/><path class="cls-1" d="M705.19,57.35H652.5L579,269.65h59.26L651,228.06h55.65l12.12,41.59h59.56Zm-45.59,131.4,18.64-62.43h1.18l17.81,62.43Z"/><path class="cls-1" d="M971.5,234.31A107.06,107.06,0,0,0,998,163.64c0-59.21-47.8-107.22-106.77-107.22s-106.77,48-106.77,107.22,47.8,107.22,106.77,107.22a106,106,0,0,0,48.69-11.78l4.4,4.76a18.07,18.07,0,0,0,13.27,5.81h46.58Zm-39-42.17-5.26-5.69a21.13,21.13,0,0,0-15.52-6.79H866.51l35.37,38.28a41.94,41.94,0,0,1-10.67,1.39c-26.56,0-48.09-24.93-48.09-55.69S864.65,108,891.21,108s48.09,24.93,48.09,55.69A62.17,62.17,0,0,1,932.53,192.14Z"/></svg>