<svg xmlns="http://www.w3.org/2000/svg" width="512" height="512" viewBox="0 0 915.917 915.917"><g fill="#1b84c6"><path d="M119.509 831.176h676.799c49.7 0 90-40.3 90-90V590.277c0-34.101-12.6-65.2-33.3-89-10.9-13.101-70-87.901-83.9-191.001-3.399-24.8-24.5-43.3-49.5-43.3H196.309c-25 0-46.2 18.5-49.5 43.3-13.9 103.1-73 177.9-83.9 191.001-20.7 23.8-33.3 55-33.3 89v150.899c-.1 49.7 40.2 90 89.9 90z"/><path d="M74.809 285.976c-8.7 48-27.7 114.8-68.5 160.9-9.2 10.3-8.2 26.1 2.1 35.3 4.8 4.2 10.7 6.3 16.6 6.3 6.9 0 13.8-2.8 18.7-8.399 48.5-54.701 70.5-130.8 80.3-185.101 5.6-31 32.5-53.5 64-53.5h539.899c31.4 0 58.301 22.5 64 53.5 9.9 54.3 31.801 130.4 80.301 185.101 4.899 5.6 11.8 8.399 18.699 8.399 5.9 0 11.801-2.1 16.601-6.3 10.3-9.2 11.3-25 2.1-35.3-40.8-46-59.8-112.9-68.5-160.9-10-54.8-57.6-94.6-113.2-94.6h-228.7l15-17.5c1.6.2 3.1.3 4.699.3 25.301 0 45.7-21 44.7-46.5-.899-23.2-19.8-42.1-42.899-42.9-25.5-1-46.5 19.4-46.5 44.7 0 6.5 1.399 12.7 3.899 18.3l-14.8 17.3a6.911 6.911 0 0 1-10.599 0l-14.601-17c2.9-6.7 4.2-14.3 3.4-22.3-2.2-21.4-19.7-38.5-41.2-40-26.2-1.9-48 18.8-48 44.6 0 24.7 20 44.7 44.7 44.7 1.899 0 3.7-.1 5.5-.4l14.2 16.6h-228.7c-55.599.1-103.199 39.9-113.199 94.7z"/></g></svg>