<svg version="1" xmlns="http://www.w3.org/2000/svg" width="346.667" height="346.667" viewBox="0 0 260.000000 260.000000"><path d="M31.9.2c-.1.2-.2 15.9-.3 35.1L31.5 70l3-.6c7-1.5 13.5-4.7 15.7-7.5 5.7-7.5 6.5-8 11.1-7.3 6.5 1.1 8.7.8 15.2-1.6 7.8-2.9 18.9-5 29.6-5.7 9.2-.5 12.7.5 17.7 5.1 2.4 2.2 5.5 2.4 23.3 1.6 3.6-.1 7.6.1 8.9.5 2.2.7 2.2 1.1 1.7 7.9-.4 6.2-2.9 14.1-4.9 15.6-.5.4-24.9 24.3-103.4 101.6-10.1 9.8-17.4 17.8-17.5 19 0 1-.2 15.3-.2 31.7l-.2 29.7h205.1l-.1-28.2c0-24.5-.2-28.3-1.5-28.3-1.4-.1-12.7 1.9-23 4-6 1.2-11.3 1.6-13.5 1.1-1.3-.3-3.9-2.7-5.6-5.3-2.5-3.6-15.9-19.4-18.9-22.3-.3-.3-3.1-3.5-6.3-7.3-4.6-5.2-6.5-6.7-8.6-6.7-2.5 0-16.1 5.1-25.1 9.3-3.9 1.9-12 3-12 1.7 0-.4 2.2-2.2 4.9-3.9 2.7-1.7 6.2-4.4 7.8-5.9 10.7-10.1 19.1-15.2 25.5-15.7 3.4-.2 4.4-.8 5.7-3.2 1.5-2.6 34.9-36.1 60.1-60.1l10.5-10V.5L134.3.2C78 .1 32 .1 31.9.2z"/></svg>